<svg xmlns="http://www.w3.org/2000/svg" width="704" height="688" viewBox="0 0 704 688" version="1.1"><path d="M 333 32.077 C 275.931 33.914, 221.724 51.822, 173.500 84.767 C 76.683 150.910, 26.690 266.362, 44.574 382.500 C 51.869 429.874, 71.592 477.169, 100.181 515.848 C 160.395 597.312, 253.970 642.781, 355 639.666 C 432.373 637.280, 504.841 605.937, 560.007 551 C 609.153 502.058, 639.017 440.618, 647.482 371.035 C 650.621 345.238, 649.321 306.132, 644.452 279.873 C 629.019 196.634, 577.175 121.255, 504.586 76.511 C 463.765 51.350, 413.444 35.068, 368.500 32.481 C 363 32.165, 357.375 31.796, 356 31.661 C 354.625 31.527, 344.275 31.714, 333 32.077 M 320.957 42.996 C 250.917 49.353, 186.820 79.375, 137.110 129.105 C 95.039 171.194, 66.045 227.013, 56.088 285.090 C 52.944 303.427, 51.827 317.102, 51.849 337 C 51.922 402.903, 74.321 466.366, 116.084 519 C 126.052 531.562, 149.191 554.934, 161 564.367 C 232.729 621.664, 326.495 642.574, 414.697 620.942 C 467.730 607.936, 514.748 581.228, 553.967 541.831 C 635.394 460.035, 660.848 337.042, 618.707 229.017 C 609.109 204.413, 590.480 172.358, 573.370 151 C 564.067 139.389, 540.542 116.002, 529 106.892 C 485.210 72.327, 436.702 51.677, 382.500 44.524 C 368.143 42.629, 334.263 41.788, 320.957 42.996 M 310 63.573 C 249.035 72.154, 196.536 97.463, 153.721 138.912 C 105.722 185.379, 77.755 243.334, 70.944 310.447 C 69.407 325.588, 70.256 361.619, 72.488 376 C 89.821 487.672, 170.798 576.512, 279.469 603.078 C 316.421 612.111, 360.101 613.198, 396.899 606.001 C 483.631 589.038, 559.297 529.257, 594.679 449.743 C 610.866 413.365, 619 375.445, 619 336.362 C 619 273.634, 599.476 217.119, 560.146 166 C 551.720 155.049, 524.951 128.280, 514 119.854 C 476.105 90.698, 436 73.221, 387.903 64.903 C 371.439 62.055, 326.262 61.284, 310 63.573 M 330 72.649 C 280.081 76.472, 238.035 90.554, 199 116.523 C 182.313 127.624, 171.821 136.184, 157.968 150 C 118.507 189.352, 93.205 238.667, 84.084 294 C 81.893 307.295, 79.830 333.845, 80.472 340.500 C 80.684 342.700, 81.139 349.566, 81.483 355.758 C 83.328 388.972, 94.054 426.460, 110.880 458.500 C 123.665 482.844, 138.251 502.445, 158.912 523.045 C 200.215 564.225, 249.696 588.886, 308.500 597.599 C 322.860 599.727, 353.114 600.500, 367.500 599.106 C 429.319 593.117, 483.839 568.098, 527.882 525.507 C 569.558 485.204, 594.843 436.462, 605.178 376.500 C 607.106 365.319, 607.425 359.792, 607.460 337 C 607.502 309.298, 606.895 302.575, 602.396 280.895 C 588.437 213.635, 544.951 151.110, 485.964 113.485 C 473.588 105.591, 449.474 93.647, 435.659 88.568 C 417.879 82.030, 395.068 76.680, 373.606 74.013 C 364.614 72.896, 337.753 72.056, 330 72.649 M 337.902 82.840 C 334.824 83.857, 329.486 86.429, 326.039 88.556 C 318.829 93.007, 307.778 97.016, 304.840 96.248 C 302.164 95.548, 301.438 93.327, 302.750 89.853 C 304.059 86.384, 303.242 86.253, 297.254 88.971 C 286.861 93.689, 276.645 103.006, 268.846 114.878 C 266.181 118.936, 264 122.630, 264 123.087 C 264 123.544, 267.331 122.120, 271.402 119.924 C 314.231 96.823, 361.102 104.848, 401 142.114 C 407.271 147.972, 406.935 147.780, 394.157 138.207 C 378.891 126.771, 359.677 117.733, 342.500 113.909 C 333.259 111.852, 310.198 112.104, 300.500 114.367 C 286.915 117.538, 269.617 125.450, 260.160 132.821 C 256.883 135.375, 255.031 144.175, 254.965 157.500 C 254.908 169.342, 256.988 179.891, 261.135 188.782 L 263.336 193.500 264.084 186.766 C 266.485 165.139, 288.653 146.763, 312.454 146.670 C 336.306 146.578, 362.885 162.008, 375.920 183.515 C 388.781 204.736, 388.482 229.087, 375.070 252.757 C 371.453 259.139, 371.257 259.910, 371.859 265.362 L 372.500 271.169 378.096 262.730 C 388.502 247.038, 393.102 233.022, 393.106 217 C 393.108 205.580, 391.528 197.918, 387.452 189.585 L 384.965 184.500 387.946 188 C 389.585 189.925, 392.514 194.650, 394.455 198.500 C 405.901 221.211, 402.586 244.663, 383.730 274.365 L 378.102 283.230 381.685 286.609 L 385.268 289.988 389.669 288.494 C 394.947 286.702, 400.495 286.592, 406.706 288.156 C 411.259 289.303, 411.321 289.284, 414.175 285.906 C 420.258 278.708, 429.877 263.139, 433.269 255 C 438.232 243.091, 439.984 234.154, 440.069 220.311 C 440.150 206.991, 438.387 197.428, 433.939 187.060 C 431.596 181.598, 431.347 180.273, 432.452 179.146 C 434.521 177.035, 439.510 178.677, 442.958 182.605 C 445.509 185.511, 446 185.747, 446 184.072 C 446 178.292, 438.107 164.199, 430.058 155.606 C 423.617 148.729, 422.553 146.590, 424.573 144.569 C 427.425 141.718, 432.558 142.607, 437.161 146.750 L 441.327 150.500 440.597 147.559 C 440.195 145.942, 438.501 142.895, 436.832 140.788 C 431.853 134.502, 426.868 131.534, 405.159 121.935 C 399.937 119.625, 395 115.088, 395 112.598 C 395 111.911, 396.164 110.258, 397.587 108.924 C 399.825 106.828, 401.051 106.521, 406.660 106.659 C 412.868 106.811, 413.075 106.740, 411.501 105.001 C 410.597 104.002, 407.527 102.137, 404.679 100.857 C 400.175 98.833, 397.936 98.532, 387.500 98.547 C 380.900 98.557, 371.657 98.948, 366.959 99.416 C 357.217 100.387, 352.518 98.912, 351.420 94.539 C 350.386 90.417, 352.311 89.017, 362.500 86.480 L 367.500 85.235 363.500 83.459 C 357.575 80.829, 344.915 80.523, 337.902 82.840 M 427.639 104.743 C 443.643 118.845, 454.889 132.950, 463.324 149.500 C 465.899 154.553, 468.089 157.331, 471.196 159.488 C 478.621 164.642, 495.243 179.510, 501.562 186.650 C 520.839 208.433, 532.474 228.223, 540.953 253.648 C 546.658 270.756, 549.078 285.219, 549.712 306 C 550.291 324.955, 549.640 328.608, 548.554 312.500 C 545.318 264.488, 529.189 227.821, 497.529 196.500 C 489.134 188.195, 471.710 174.436, 467.979 173.167 C 467.437 172.982, 467.014 174.765, 467.032 177.167 C 467.062 181.358, 467.270 181.639, 473.349 185.735 C 497.991 202.337, 520.356 233.462, 531.054 266.043 C 536.935 283.953, 539.130 296.840, 539.733 317 C 540.878 355.305, 532.181 391.494, 512.337 431 C 504.987 445.633, 501.509 451.187, 493.284 461.425 L 491.067 464.184 488.278 462.198 C 486.744 461.106, 480.081 454.652, 473.471 447.856 C 450.414 424.151, 437.612 399.944, 436.274 377.523 C 435.697 367.849, 437.009 357.517, 439.654 350.906 C 440.975 347.606, 441.673 347, 444.154 347 C 447.554 347, 452 350.895, 452 353.874 C 452 355.361, 453.279 356.256, 457.250 357.552 C 463.887 359.717, 464.811 360.476, 465.540 364.360 C 465.969 366.648, 465.313 369.344, 463.162 374.139 C 459.530 382.234, 457.599 391.051, 458.457 395.624 C 459.320 400.222, 464.341 405.722, 468.930 407.097 C 471.997 408.016, 473.239 407.928, 475.788 406.610 C 477.500 405.724, 479.741 405, 480.769 405 C 485.637 405, 493.630 401.606, 497.222 398.013 C 502.275 392.960, 502.419 390.097, 497.451 393.469 C 492.147 397.068, 487.812 398.259, 484.542 397.016 C 482.617 396.284, 481.980 395.494, 482.411 394.371 C 482.802 393.353, 481.737 391.345, 479.486 388.853 L 475.947 384.936 478.443 381.664 C 484.579 373.619, 485.554 365.823, 482.078 352.590 C 479.811 343.960, 479.473 338.517, 480.960 334.604 C 481.489 333.215, 484.526 328.961, 487.710 325.151 C 494.530 316.992, 499.212 309.445, 502.831 300.779 C 504.995 295.596, 505.457 292.919, 505.477 285.441 C 505.498 277.175, 505.221 275.850, 502.316 270.303 C 500.565 266.959, 498.828 262.600, 498.456 260.616 C 497.856 257.420, 498.146 256.666, 500.996 254.004 C 502.987 252.144, 503.990 250.415, 503.626 249.469 C 503.240 248.462, 503.925 247.536, 505.633 246.757 C 507.821 245.760, 508.834 245.908, 512.113 247.705 C 516.479 250.096, 516.686 249.977, 514.352 246.414 C 512.110 242.993, 507.781 240.927, 501.819 240.431 C 499.079 240.204, 496.437 239.770, 495.948 239.468 C 494.483 238.562, 489.308 241.759, 487.006 244.992 C 483.468 249.961, 483.347 257.065, 486.631 267 C 488.824 273.633, 489.447 277.406, 489.470 284.177 C 489.503 293.791, 488.146 296.828, 482.284 300.261 L 479.277 302.022 475.443 295.468 C 473.335 291.863, 469.010 286.248, 465.833 282.990 C 462.655 279.733, 459.780 275.815, 459.444 274.284 C 459.108 272.753, 458.643 270.895, 458.412 270.156 C 458.180 269.416, 459.343 267.548, 460.995 266.004 C 462.648 264.461, 464 262.505, 464 261.658 C 464 260.811, 464.480 259.821, 465.066 259.459 C 467.044 258.237, 473.028 258.788, 475.523 260.423 C 479.328 262.916, 478.468 260.775, 473.813 256.166 C 469.378 251.775, 465.242 250.349, 460.173 251.462 C 458.437 251.843, 456.917 251.675, 456.536 251.059 C 455.426 249.261, 451.920 249.887, 449.854 252.250 C 448.773 253.487, 446.793 256.750, 445.454 259.500 C 440.239 270.211, 443.031 282.630, 453.435 295 C 462.482 305.757, 465.865 316.600, 462.608 324.396 L 461.003 328.236 457.047 324.661 C 450.878 319.088, 445.807 316.989, 435.820 315.874 C 430.854 315.320, 426.219 315.086, 425.519 315.354 C 423.658 316.069, 415.402 342.071, 412.531 356.261 C 401.410 411.235, 411.613 458.613, 442.232 494.189 C 447.032 499.766, 447.990 501.413, 446.888 502.188 C 443.237 504.758, 420.604 515.051, 413.500 517.373 C 381.808 527.733, 350.974 528.532, 328.783 519.568 C 315.020 514.009, 301.831 503.068, 294.657 491.259 C 287.949 480.216, 286.268 464.855, 290.032 449 C 292.524 438.503, 301.009 420.873, 307.997 411.674 C 310.849 407.920, 313.028 404.736, 312.841 404.598 C 312.653 404.460, 310.776 403.310, 308.669 402.042 C 302.939 398.594, 297.770 391.336, 294.077 381.552 L 290.775 372.804 286.318 377.152 C 268.836 394.204, 254.638 425.134, 251.053 453.974 C 246.482 490.753, 256.055 520.696, 280.422 545.834 C 290.042 555.758, 298.593 562.279, 310.052 568.431 C 314.699 570.926, 318.216 572.974, 317.869 572.983 C 316.399 573.022, 303.385 567.715, 296.719 564.358 C 274.127 552.982, 257.246 536.221, 247.285 515.277 C 238.934 497.718, 235.890 479.381, 237.945 459.004 C 241.453 424.231, 255.962 389.759, 278.124 363.551 C 281.356 359.729, 283.980 356.129, 283.955 355.551 C 283.930 354.973, 283.356 353.202, 282.678 351.616 L 281.446 348.731 276.056 354.616 C 259.915 372.235, 244.486 398.339, 237.114 420.500 C 231.672 436.859, 229.745 448.745, 229.616 466.744 C 229.552 475.679, 229.204 482.991, 228.843 482.994 C 227.779 483.004, 222.049 468.487, 219.836 460.175 C 217.397 451.015, 216.893 430.893, 218.867 421.500 C 221.665 408.190, 226.377 396.638, 234.293 383.687 C 238.704 376.470, 239.662 371.519, 237.601 366.587 C 236.362 363.621, 234.976 362.437, 230.352 360.392 C 223.095 357.183, 209.176 353.445, 199.218 352.032 C 186.809 350.271, 187.522 350.658, 187.327 345.563 C 187.222 342.822, 185.700 337.778, 183.465 332.769 C 181.436 328.221, 179.569 323.375, 179.316 322 C 179.063 320.625, 180.007 315.900, 181.415 311.500 C 185.398 299.049, 184.711 293.769, 178.339 287.872 C 173.893 283.757, 171.131 282.745, 164.441 282.779 C 157.401 282.814, 155.733 283.496, 151.500 288.068 C 149.205 290.547, 148.970 291.115, 150.500 290.484 C 151.600 290.031, 154.445 289.463, 156.822 289.223 C 160.267 288.876, 161.614 289.229, 163.460 290.963 C 164.937 292.350, 165.589 293.855, 165.260 295.115 C 164.952 296.293, 165.419 297.586, 166.417 298.316 C 167.968 299.450, 167.929 299.906, 165.884 304.520 C 162.445 312.281, 162.795 323.976, 166.794 334.979 C 168.489 339.642, 169.688 343.646, 169.458 343.875 C 169.228 344.105, 167.286 343.132, 165.141 341.712 C 160.044 338.339, 157.235 332.377, 156.373 323.102 C 155.555 314.307, 152.844 310.441, 145.257 307.254 C 138.051 304.227, 135.345 303.798, 133.718 305.425 C 132.933 306.209, 130.657 307.534, 128.660 308.369 C 126.282 309.362, 123.987 311.528, 122.014 314.639 C 118.247 320.580, 118.157 322.182, 121.786 318.705 C 125.054 315.574, 130.795 314.050, 131.997 315.995 C 132.434 316.702, 134.526 317.569, 136.646 317.921 C 140.196 318.511, 140.478 318.796, 140.224 321.531 C 138.720 337.688, 138.754 338.598, 141.046 343.091 C 142.283 345.516, 147.284 351.519, 152.158 356.430 C 158.803 363.126, 161.293 366.376, 162.113 369.420 C 163.851 375.873, 162.760 381.295, 158.790 385.932 C 152.858 392.862, 151.594 399.207, 152.282 418.602 C 152.705 430.532, 152.539 435.765, 151.695 437.117 C 150.781 438.581, 150.810 439.467, 151.829 441.097 C 152.549 442.251, 152.995 443.285, 152.819 443.395 C 148.674 445.993, 142.187 446.705, 138.863 444.927 C 136.928 443.891, 136.915 443.941, 138.488 446.341 C 139.384 447.709, 141.757 449.606, 143.761 450.557 C 147.011 452.099, 148.115 452.146, 153.953 450.992 C 162.016 449.399, 163.961 448.176, 167.052 442.759 C 169.123 439.130, 169.473 437.242, 169.416 430 C 169.379 425.325, 168.991 418.551, 168.554 414.947 C 167.870 409.318, 168.047 407.829, 169.806 404.381 C 170.932 402.173, 172.631 399.721, 173.582 398.933 C 176.364 396.626, 178 391.500, 178 385.091 C 178 381.806, 178.380 378.883, 178.844 378.597 C 179.308 378.310, 181.333 378.342, 183.343 378.668 C 186.109 379.117, 187.519 380.104, 189.140 382.726 L 191.281 386.190 200.224 385.482 L 209.167 384.774 206.406 389.137 C 201.967 396.148, 195.420 410.828, 192.640 420.005 C 181.688 456.145, 186.468 491.961, 206.287 522.281 C 224.687 550.429, 263.724 574.502, 304.500 582.845 C 328.515 587.758, 361.139 588.242, 385.500 584.046 C 479.550 567.847, 556.961 499.815, 584.044 409.557 C 592.024 382.965, 594.507 365.630, 594.436 337 C 594.374 312.336, 592.854 299.429, 587.367 277 C 572.406 215.849, 534.344 161.452, 482.521 127.161 C 465.968 116.208, 439.146 103.472, 422.121 98.481 C 420.639 98.046, 422.721 100.409, 427.639 104.743 M 257.378 108.137 C 248.204 114.119, 236.073 125.935, 230.312 134.500 C 216.943 154.378, 212.514 175.178, 216.473 199.500 C 217.907 208.314, 222.807 224.704, 225.693 230.343 C 227.663 234.193, 226.992 234.452, 222.928 231.409 C 211.136 222.579, 201.402 221.056, 188 225.944 C 177.927 229.618, 170.713 234.323, 166.257 240.124 C 164.473 242.446, 163.145 244.478, 163.305 244.638 C 163.466 244.799, 166.474 243.768, 169.991 242.348 C 175.472 240.134, 177.483 239.829, 184.081 240.211 C 192.557 240.701, 200.700 243.923, 204.980 248.478 C 207.184 250.825, 207.215 251.006, 205.424 251.082 C 197.601 251.417, 190.722 254.371, 184.574 260.038 C 182.058 262.357, 180 264.600, 180 265.022 C 180 265.445, 182.813 264.897, 186.250 263.806 C 196.919 260.418, 214.248 262.732, 218.709 268.141 C 219.725 269.372, 219.209 269.797, 215.500 270.789 C 212.313 271.641, 209.358 273.656, 204.904 278.015 C 201.506 281.340, 198.954 284.287, 199.231 284.565 C 199.509 284.842, 201.708 284.615, 204.118 284.059 C 206.528 283.504, 212.100 283.048, 216.500 283.046 C 225.081 283.044, 230.374 284.759, 236.722 289.601 L 240 292.102 240.010 285.801 C 240.026 275.338, 244.983 266.994, 253.232 263.548 C 260.490 260.515, 261.355 261.590, 255.807 266.750 C 249.336 272.768, 246.861 278.193, 246.813 286.461 C 246.755 296.570, 249.238 302.149, 257.837 311.232 C 259.780 313.284, 261.047 315.286, 260.652 315.681 C 258.425 317.908, 239.518 310.814, 229.256 303.901 L 224.500 300.697 228 304.480 C 236.466 313.630, 251.827 321.192, 264.874 322.633 C 267.968 322.975, 272.075 324.205, 274 325.366 L 277.500 327.477 274.500 328.120 C 265.030 330.151, 254.604 328.490, 239.049 322.472 C 226.589 317.652, 217.452 316.822, 210.534 319.882 C 204.718 322.455, 204.918 323.316, 210.975 321.778 C 217.499 320.122, 226.714 322.044, 238.090 327.433 C 251.805 333.930, 262.802 336.339, 276 335.737 C 281.775 335.474, 287.290 334.926, 288.255 334.520 C 290.747 333.472, 294.336 341.786, 296.882 354.500 C 300.386 372.008, 304.454 380.649, 313.379 389.544 C 322.675 398.808, 334.285 403.471, 351.017 404.660 C 358.665 405.204, 366.227 404.385, 371.208 402.474 C 372.674 401.911, 372.796 402.224, 372.081 404.718 C 370.586 409.931, 368.254 413.489, 363.287 418.135 C 356.633 424.359, 350.321 426.391, 339.633 425.752 C 335.160 425.484, 330.600 424.925, 329.500 424.510 C 327.553 423.774, 327.554 423.794, 329.544 425.289 C 336.909 430.822, 353.264 431.491, 362.750 426.647 C 365.637 425.173, 368 424.356, 368 424.833 C 368 426.544, 362.247 433.593, 356.925 438.403 C 351.382 443.412, 344.294 447.233, 336.101 449.628 L 331.500 450.973 336.500 450.400 C 348.432 449.032, 362.867 441.660, 369.525 433.535 C 376.413 425.128, 380.970 411.528, 380.992 399.309 C 380.997 397.004, 381.456 394.836, 382.014 394.491 C 383.640 393.486, 386.770 386.740, 387.558 382.544 L 388.282 378.682 384.525 382.841 C 380.093 387.746, 378.656 387.998, 377.062 384.150 C 374.411 377.750, 361.151 367.845, 350.621 364.399 C 333.872 358.918, 324.833 350.123, 324.833 339.307 C 324.833 333.520, 322.985 334.954, 322.270 341.294 C 321.028 352.319, 326.807 358.870, 346.099 368.306 C 360.582 375.389, 367.462 381.024, 370.474 388.267 C 372.040 392.032, 372.040 392.034, 369.271 393.216 C 366.351 394.462, 350.605 394.938, 349.481 393.814 C 349.120 393.453, 349.838 391.786, 351.077 390.110 C 353.526 386.797, 355.144 376, 353.191 376 C 352.610 376, 351.840 376.930, 351.479 378.066 C 350.239 381.974, 344.978 386.913, 341.327 387.598 C 329.167 389.880, 317.038 376.560, 313.462 357 C 309.277 334.102, 302.945 324.114, 286.558 314.560 C 280.545 311.054, 279.991 310.480, 281.532 309.353 C 284.446 307.222, 293.872 305.754, 299.847 306.500 C 306.784 307.367, 317.540 311.190, 324.340 315.205 C 331.450 319.404, 342.741 323.808, 350.233 325.306 C 355.847 326.427, 356.688 326.920, 358.304 330.029 C 360.540 334.329, 359.989 340.095, 356.685 347 C 354.527 351.508, 354.495 351.806, 356.262 350.860 C 362.695 347.417, 370.984 336.004, 371.010 330.554 C 371.019 328.656, 371.702 328.479, 380.023 328.220 C 384.975 328.066, 390.184 327.500, 391.597 326.963 C 393.011 326.425, 394.636 326.275, 395.209 326.629 C 396.637 327.512, 395.638 339.362, 393.662 344.961 C 392.797 347.414, 392.336 349.664, 392.637 349.961 C 393.542 350.850, 399.840 342.867, 402.568 337.375 C 404.297 333.892, 405.126 330.554, 405.154 326.955 C 405.176 324.044, 405.680 320.884, 406.273 319.935 C 407.079 318.643, 406.918 317.074, 405.633 313.710 C 403.798 308.905, 401.738 307.702, 396.973 308.655 C 395.471 308.956, 393.977 308.772, 393.653 308.248 C 392.645 306.617, 395.478 303.820, 398.304 303.656 C 399.786 303.570, 400.999 303.195, 400.999 302.821 C 401.001 301.070, 397.536 299, 394.603 299 C 391.258 299, 389.053 300.788, 385.662 306.250 C 383.124 310.336, 378.810 310.047, 376.066 305.607 C 372.162 299.291, 362.747 294.094, 357.565 295.394 C 355.711 295.860, 354.395 295.067, 351.118 291.512 C 346.908 286.944, 345.877 283.177, 348.289 281.175 C 348.999 280.586, 351.574 279.657, 354.012 279.109 C 361.463 277.435, 362.647 273.606, 358.683 264 C 357.435 260.975, 354.133 255.125, 351.345 251 C 345.429 242.247, 334.310 228.583, 335.478 231.500 C 335.918 232.600, 337.529 237.100, 339.057 241.500 C 340.585 245.900, 342.763 251.525, 343.896 254 C 347.591 262.071, 345.993 272.082, 340.168 277.349 C 338.129 279.194, 338.125 279.186, 338.684 273.774 C 339.794 263.016, 334.706 251.768, 324.233 241.833 C 313.792 231.928, 303.769 226.244, 287.680 221.101 C 267.110 214.527, 261.255 209.779, 252.855 192.862 C 247.708 182.497, 245.644 172.850, 245.715 159.500 C 245.767 149.586, 246.234 145.972, 248.396 138.712 C 251.447 128.469, 256.463 118.055, 262.586 109.250 C 264.977 105.813, 266.556 103, 266.095 103 C 265.634 103, 261.711 105.312, 257.378 108.137 M 226.500 113.835 C 188.918 133.866, 157.535 162.243, 134.524 197 C 120.701 217.879, 112.851 234.080, 104.968 258 C 89.222 305.782, 88.318 358.085, 102.402 406.514 C 119.496 465.294, 158.840 517.090, 211.260 549.823 L 218.021 554.044 207.760 543.752 C 195.956 531.911, 188.693 521.847, 182.489 508.734 C 176.959 497.043, 173.951 486.082, 173.139 474.649 L 172.500 465.669 168.228 473.541 C 165.879 477.871, 162.982 484.087, 161.791 487.354 L 159.625 493.295 156.296 489.397 C 145.924 477.253, 131.017 450.179, 124.143 431 C 117.340 412.022, 111.144 385.260, 109.093 366 C 107.403 350.122, 110.090 323.340, 115.525 301.900 C 127.475 254.760, 155.709 214.440, 194.063 189.744 C 202.517 184.299, 202.620 184.184, 202.203 180.615 C 201.971 178.627, 201.597 177, 201.373 177 C 201.148 177, 197.938 178.838, 194.240 181.085 C 170.800 195.325, 148.021 218.132, 131.371 244.031 C 128.213 248.943, 125.487 252.821, 125.314 252.648 C 124.588 251.921, 133.828 235.595, 141.530 224 C 155.984 202.239, 170.133 187.819, 193.286 171.254 C 203.357 164.048, 203.426 163.970, 205.687 157.254 C 210.218 143.791, 220.079 127.660, 231.190 115.534 C 234.483 111.940, 236.800 109.009, 236.339 109.019 C 235.877 109.030, 231.450 111.197, 226.500 113.835 M 284.757 166.939 C 275.793 175.132, 272.405 186.217, 274.936 199.079 C 276.948 209.307, 277.006 209.367, 287.432 211.880 C 305.021 216.120, 321.332 226.243, 330.166 238.400 C 336.711 247.407, 331.085 232.868, 323.728 221.764 C 320.717 217.219, 317.333 211.677, 316.208 209.450 C 312.880 202.858, 311.707 193.290, 313.400 186.543 C 314.320 182.875, 312.431 183.334, 307.882 187.882 C 304.803 190.961, 304 192.513, 304 195.382 C 304 199.961, 302.329 200.031, 300.449 195.532 C 298.560 191.010, 298.608 184.224, 300.572 178.440 C 301.436 175.894, 301.978 173.645, 301.776 173.442 C 301.573 173.240, 299.990 173.936, 298.258 174.989 C 294.650 177.184, 292.318 180.405, 290.461 185.759 L 289.164 189.500 287.996 186.500 C 286.115 181.670, 286.541 172.825, 288.912 167.466 C 290.074 164.840, 290.850 162.517, 290.638 162.304 C 290.425 162.092, 287.779 164.177, 284.757 166.939 M 332.992 208.250 C 327.574 211.939, 327.159 213.407, 330.611 216.668 C 332.259 218.226, 335.559 222.099, 337.944 225.277 C 340.329 228.454, 342.403 230.929, 342.552 230.777 C 342.702 230.624, 342.167 227.927, 341.365 224.781 C 339.593 217.835, 340.778 212.037, 344.715 208.389 L 347.292 206 341.794 206 C 337.738 206, 335.429 206.590, 332.992 208.250 M 296.584 269.977 C 300.466 277.109, 304.763 280.233, 311.457 280.788 C 314.379 281.030, 317.539 280.798, 318.480 280.271 C 321.575 278.539, 305.510 267.638, 296.609 265.430 L 293.719 264.713 296.584 269.977 M 350.455 303.455 C 347.526 306.383, 347.369 308.119, 349.829 310.345 C 352.311 312.591, 353.067 312.448, 355.618 309.250 C 357.427 306.981, 358.599 306.500, 362.320 306.500 C 367.424 306.500, 367.182 305.263, 361.553 302.592 C 356.799 300.336, 353.301 300.608, 350.455 303.455 M 524.120 373.679 C 521.362 381.582, 508.918 405.835, 503.174 414.500 C 497.295 423.369, 487.762 434.205, 483.130 437.282 L 480.760 438.856 485.571 444.428 C 488.217 447.493, 490.756 450, 491.213 450 C 492.621 450, 504.572 431.018, 509.799 420.479 C 516.248 407.479, 521.253 393.856, 524.002 381.821 C 526.324 371.659, 526.389 367.177, 524.120 373.679 M 297.899 466.527 C 297.590 478.626, 300.594 486.207, 309.514 495.842 C 316.620 503.517, 321.911 507.252, 330.971 510.988 C 342.683 515.818, 351.964 517.480, 367 517.442 C 386.801 517.392, 403.250 513.463, 423.353 503.982 L 432.206 499.807 429.257 496.654 C 427.635 494.919, 425.044 491.792, 423.500 489.703 L 420.691 485.907 417.596 488.866 C 410.253 495.887, 393.271 503, 383.853 503 C 378.193 503, 378.200 499.865, 383.872 493.596 C 386.085 491.151, 386.184 490.818, 384.500 491.491 C 375.823 494.962, 365.406 497.276, 356.386 497.735 C 342.559 498.439, 341.453 496.239, 352.451 489.901 C 357.227 487.148, 357.311 487.032, 354 487.746 C 352.075 488.161, 344.200 488.481, 336.500 488.458 C 325.711 488.426, 321.640 488.036, 318.750 486.759 C 311.710 483.648, 314.694 481.600, 327.954 480.444 L 336.209 479.724 327.355 477.447 C 311.837 473.456, 302.724 469.299, 299.546 464.762 C 298.037 462.608, 297.998 462.651, 297.899 466.527" stroke="none" fill="#3e3e3e" fill-rule="evenodd"/><path d="M 337.287 31.740 C 340.469 31.939, 345.419 31.937, 348.287 31.736 C 351.154 31.535, 348.550 31.372, 342.500 31.374 C 336.450 31.376, 334.104 31.541, 337.287 31.740 M 320.957 42.996 C 250.917 49.353, 186.820 79.375, 137.110 129.105 C 95.039 171.194, 66.045 227.013, 56.088 285.090 C 52.944 303.427, 51.827 317.102, 51.849 337 C 51.922 402.903, 74.321 466.366, 116.084 519 C 126.052 531.562, 149.191 554.934, 161 564.367 C 232.729 621.664, 326.495 642.574, 414.697 620.942 C 467.730 607.936, 514.748 581.228, 553.967 541.831 C 635.394 460.035, 660.848 337.042, 618.707 229.017 C 609.109 204.413, 590.480 172.358, 573.370 151 C 564.067 139.389, 540.542 116.002, 529 106.892 C 485.210 72.327, 436.702 51.677, 382.500 44.524 C 368.143 42.629, 334.263 41.788, 320.957 42.996 M 310 63.573 C 249.035 72.154, 196.536 97.463, 153.721 138.912 C 105.722 185.379, 77.755 243.334, 70.944 310.447 C 69.407 325.588, 70.256 361.619, 72.488 376 C 89.821 487.672, 170.798 576.512, 279.469 603.078 C 316.421 612.111, 360.101 613.198, 396.899 606.001 C 483.631 589.038, 559.297 529.257, 594.679 449.743 C 610.866 413.365, 619 375.445, 619 336.362 C 619 273.634, 599.476 217.119, 560.146 166 C 551.720 155.049, 524.951 128.280, 514 119.854 C 476.105 90.698, 436 73.221, 387.903 64.903 C 371.439 62.055, 326.262 61.284, 310 63.573 M 330 72.649 C 280.081 76.472, 238.035 90.554, 199 116.523 C 182.313 127.624, 171.821 136.184, 157.968 150 C 118.507 189.352, 93.205 238.667, 84.084 294 C 81.893 307.295, 79.830 333.845, 80.472 340.500 C 80.684 342.700, 81.139 349.566, 81.483 355.758 C 83.328 388.972, 94.054 426.460, 110.880 458.500 C 123.665 482.844, 138.251 502.445, 158.912 523.045 C 200.215 564.225, 249.696 588.886, 308.500 597.599 C 322.860 599.727, 353.114 600.500, 367.500 599.106 C 429.319 593.117, 483.839 568.098, 527.882 525.507 C 569.558 485.204, 594.843 436.462, 605.178 376.500 C 607.106 365.319, 607.425 359.792, 607.460 337 C 607.502 309.298, 606.895 302.575, 602.396 280.895 C 588.437 213.635, 544.951 151.110, 485.964 113.485 C 473.588 105.591, 449.474 93.647, 435.659 88.568 C 417.879 82.030, 395.068 76.680, 373.606 74.013 C 364.614 72.896, 337.753 72.056, 330 72.649 M 337.902 82.840 C 334.824 83.857, 329.486 86.429, 326.039 88.556 C 318.829 93.007, 307.778 97.016, 304.840 96.248 C 302.164 95.548, 301.438 93.327, 302.750 89.853 C 304.059 86.384, 303.242 86.253, 297.254 88.971 C 286.861 93.689, 276.645 103.006, 268.846 114.878 C 266.181 118.936, 264 122.630, 264 123.087 C 264 123.544, 267.331 122.120, 271.402 119.924 C 314.231 96.823, 361.102 104.848, 401 142.114 C 407.271 147.972, 406.935 147.780, 394.157 138.207 C 378.891 126.771, 359.677 117.733, 342.500 113.909 C 333.259 111.852, 310.198 112.104, 300.500 114.367 C 286.915 117.538, 269.617 125.450, 260.160 132.821 C 256.883 135.375, 255.031 144.175, 254.965 157.500 C 254.908 169.342, 256.988 179.891, 261.135 188.782 L 263.336 193.500 264.084 186.766 C 266.485 165.139, 288.653 146.763, 312.454 146.670 C 336.306 146.578, 362.885 162.008, 375.920 183.515 C 388.781 204.736, 388.482 229.087, 375.070 252.757 C 371.453 259.139, 371.257 259.910, 371.859 265.362 L 372.500 271.169 378.096 262.730 C 388.502 247.038, 393.102 233.022, 393.106 217 C 393.108 205.580, 391.528 197.918, 387.452 189.585 L 384.965 184.500 387.946 188 C 389.585 189.925, 392.514 194.650, 394.455 198.500 C 405.901 221.211, 402.586 244.663, 383.730 274.365 L 378.102 283.230 381.685 286.609 L 385.268 289.988 389.669 288.494 C 394.947 286.702, 400.495 286.592, 406.706 288.156 C 411.259 289.303, 411.321 289.284, 414.175 285.906 C 420.258 278.708, 429.877 263.139, 433.269 255 C 438.232 243.091, 439.984 234.154, 440.069 220.311 C 440.150 206.991, 438.387 197.428, 433.939 187.060 C 431.596 181.598, 431.347 180.273, 432.452 179.146 C 434.521 177.035, 439.510 178.677, 442.958 182.605 C 445.509 185.511, 446 185.747, 446 184.072 C 446 178.292, 438.107 164.199, 430.058 155.606 C 423.617 148.729, 422.553 146.590, 424.573 144.569 C 427.425 141.718, 432.558 142.607, 437.161 146.750 L 441.327 150.500 440.597 147.559 C 440.195 145.942, 438.501 142.895, 436.832 140.788 C 431.853 134.502, 426.868 131.534, 405.159 121.935 C 399.937 119.625, 395 115.088, 395 112.598 C 395 111.911, 396.164 110.258, 397.587 108.924 C 399.825 106.828, 401.051 106.521, 406.660 106.659 C 412.868 106.811, 413.075 106.740, 411.501 105.001 C 410.597 104.002, 407.527 102.137, 404.679 100.857 C 400.175 98.833, 397.936 98.532, 387.500 98.547 C 380.900 98.557, 371.657 98.948, 366.959 99.416 C 357.217 100.387, 352.518 98.912, 351.420 94.539 C 350.386 90.417, 352.311 89.017, 362.500 86.480 L 367.500 85.235 363.500 83.459 C 357.575 80.829, 344.915 80.523, 337.902 82.840 M 427.639 104.743 C 443.643 118.845, 454.889 132.950, 463.324 149.500 C 465.899 154.553, 468.089 157.331, 471.196 159.488 C 478.621 164.642, 495.243 179.510, 501.562 186.650 C 520.839 208.433, 532.474 228.223, 540.953 253.648 C 546.658 270.756, 549.078 285.219, 549.712 306 C 550.291 324.955, 549.640 328.608, 548.554 312.500 C 545.318 264.488, 529.189 227.821, 497.529 196.500 C 489.134 188.195, 471.710 174.436, 467.979 173.167 C 467.437 172.982, 467.014 174.765, 467.032 177.167 C 467.062 181.358, 467.270 181.639, 473.349 185.735 C 497.991 202.337, 520.356 233.462, 531.054 266.043 C 536.935 283.953, 539.130 296.840, 539.733 317 C 540.878 355.305, 532.181 391.494, 512.337 431 C 504.987 445.633, 501.509 451.187, 493.284 461.425 L 491.067 464.184 488.278 462.198 C 486.744 461.106, 480.081 454.652, 473.471 447.856 C 450.414 424.151, 437.612 399.944, 436.274 377.523 C 435.697 367.849, 437.009 357.517, 439.654 350.906 C 440.975 347.606, 441.673 347, 444.154 347 C 447.554 347, 452 350.895, 452 353.874 C 452 355.361, 453.279 356.256, 457.250 357.552 C 463.887 359.717, 464.811 360.476, 465.540 364.360 C 465.969 366.648, 465.313 369.344, 463.162 374.139 C 459.530 382.234, 457.599 391.051, 458.457 395.624 C 459.320 400.222, 464.341 405.722, 468.930 407.097 C 471.997 408.016, 473.239 407.928, 475.788 406.610 C 477.500 405.724, 479.741 405, 480.769 405 C 485.637 405, 493.630 401.606, 497.222 398.013 C 502.275 392.960, 502.419 390.097, 497.451 393.469 C 492.147 397.068, 487.812 398.259, 484.542 397.016 C 482.617 396.284, 481.980 395.494, 482.411 394.371 C 482.802 393.353, 481.737 391.345, 479.486 388.853 L 475.947 384.936 478.443 381.664 C 484.579 373.619, 485.554 365.823, 482.078 352.590 C 479.811 343.960, 479.473 338.517, 480.960 334.604 C 481.489 333.215, 484.526 328.961, 487.710 325.151 C 494.530 316.992, 499.212 309.445, 502.831 300.779 C 504.995 295.596, 505.457 292.919, 505.477 285.441 C 505.498 277.175, 505.221 275.850, 502.316 270.303 C 500.565 266.959, 498.828 262.600, 498.456 260.616 C 497.856 257.420, 498.146 256.666, 500.996 254.004 C 502.987 252.144, 503.990 250.415, 503.626 249.469 C 503.240 248.462, 503.925 247.536, 505.633 246.757 C 507.821 245.760, 508.834 245.908, 512.113 247.705 C 516.479 250.096, 516.686 249.977, 514.352 246.414 C 512.110 242.993, 507.781 240.927, 501.819 240.431 C 499.079 240.204, 496.437 239.770, 495.948 239.468 C 494.483 238.562, 489.308 241.759, 487.006 244.992 C 483.468 249.961, 483.347 257.065, 486.631 267 C 488.824 273.633, 489.447 277.406, 489.470 284.177 C 489.503 293.791, 488.146 296.828, 482.284 300.261 L 479.277 302.022 475.443 295.468 C 473.335 291.863, 469.010 286.248, 465.833 282.990 C 462.655 279.733, 459.780 275.815, 459.444 274.284 C 459.108 272.753, 458.643 270.895, 458.412 270.156 C 458.180 269.416, 459.343 267.548, 460.995 266.004 C 462.648 264.461, 464 262.505, 464 261.658 C 464 260.811, 464.480 259.821, 465.066 259.459 C 467.044 258.237, 473.028 258.788, 475.523 260.423 C 479.328 262.916, 478.468 260.775, 473.813 256.166 C 469.378 251.775, 465.242 250.349, 460.173 251.462 C 458.437 251.843, 456.917 251.675, 456.536 251.059 C 455.426 249.261, 451.920 249.887, 449.854 252.250 C 448.773 253.487, 446.793 256.750, 445.454 259.500 C 440.239 270.211, 443.031 282.630, 453.435 295 C 462.482 305.757, 465.865 316.600, 462.608 324.396 L 461.003 328.236 457.047 324.661 C 450.878 319.088, 445.807 316.989, 435.820 315.874 C 430.854 315.320, 426.219 315.086, 425.519 315.354 C 423.658 316.069, 415.402 342.071, 412.531 356.261 C 401.410 411.235, 411.613 458.613, 442.232 494.189 C 447.032 499.766, 447.990 501.413, 446.888 502.188 C 443.237 504.758, 420.604 515.051, 413.500 517.373 C 381.808 527.733, 350.974 528.532, 328.783 519.568 C 315.020 514.009, 301.831 503.068, 294.657 491.259 C 287.949 480.216, 286.268 464.855, 290.032 449 C 292.524 438.503, 301.009 420.873, 307.997 411.674 C 310.849 407.920, 313.028 404.736, 312.841 404.598 C 312.653 404.460, 310.776 403.310, 308.669 402.042 C 302.939 398.594, 297.770 391.336, 294.077 381.552 L 290.775 372.804 286.318 377.152 C 268.836 394.204, 254.638 425.134, 251.053 453.974 C 246.482 490.753, 256.055 520.696, 280.422 545.834 C 290.042 555.758, 298.593 562.279, 310.052 568.431 C 314.699 570.926, 318.216 572.974, 317.869 572.983 C 316.399 573.022, 303.385 567.715, 296.719 564.358 C 274.127 552.982, 257.246 536.221, 247.285 515.277 C 238.934 497.718, 235.890 479.381, 237.945 459.004 C 241.453 424.231, 255.962 389.759, 278.124 363.551 C 281.356 359.729, 283.980 356.129, 283.955 355.551 C 283.930 354.973, 283.356 353.202, 282.678 351.616 L 281.446 348.731 276.056 354.616 C 259.915 372.235, 244.486 398.339, 237.114 420.500 C 231.672 436.859, 229.745 448.745, 229.616 466.744 C 229.552 475.679, 229.204 482.991, 228.843 482.994 C 227.779 483.004, 222.049 468.487, 219.836 460.175 C 217.397 451.015, 216.893 430.893, 218.867 421.500 C 221.665 408.190, 226.377 396.638, 234.293 383.687 C 238.704 376.470, 239.662 371.519, 237.601 366.587 C 236.362 363.621, 234.976 362.437, 230.352 360.392 C 223.095 357.183, 209.176 353.445, 199.218 352.032 C 186.809 350.271, 187.522 350.658, 187.327 345.563 C 187.222 342.822, 185.700 337.778, 183.465 332.769 C 181.436 328.221, 179.569 323.375, 179.316 322 C 179.063 320.625, 180.007 315.900, 181.415 311.500 C 185.398 299.049, 184.711 293.769, 178.339 287.872 C 173.893 283.757, 171.131 282.745, 164.441 282.779 C 157.401 282.814, 155.733 283.496, 151.500 288.068 C 149.205 290.547, 148.970 291.115, 150.500 290.484 C 151.600 290.031, 154.445 289.463, 156.822 289.223 C 160.267 288.876, 161.614 289.229, 163.460 290.963 C 164.937 292.350, 165.589 293.855, 165.260 295.115 C 164.952 296.293, 165.419 297.586, 166.417 298.316 C 167.968 299.450, 167.929 299.906, 165.884 304.520 C 162.445 312.281, 162.795 323.976, 166.794 334.979 C 168.489 339.642, 169.688 343.646, 169.458 343.875 C 169.228 344.105, 167.286 343.132, 165.141 341.712 C 160.044 338.339, 157.235 332.377, 156.373 323.102 C 155.555 314.307, 152.844 310.441, 145.257 307.254 C 138.051 304.227, 135.345 303.798, 133.718 305.425 C 132.933 306.209, 130.657 307.534, 128.660 308.369 C 126.282 309.362, 123.987 311.528, 122.014 314.639 C 118.247 320.580, 118.157 322.182, 121.786 318.705 C 125.054 315.574, 130.795 314.050, 131.997 315.995 C 132.434 316.702, 134.526 317.569, 136.646 317.921 C 140.196 318.511, 140.478 318.796, 140.224 321.531 C 138.720 337.688, 138.754 338.598, 141.046 343.091 C 142.283 345.516, 147.284 351.519, 152.158 356.430 C 158.803 363.126, 161.293 366.376, 162.113 369.420 C 163.851 375.873, 162.760 381.295, 158.790 385.932 C 152.858 392.862, 151.594 399.207, 152.282 418.602 C 152.705 430.532, 152.539 435.765, 151.695 437.117 C 150.781 438.581, 150.810 439.467, 151.829 441.097 C 152.549 442.251, 152.995 443.285, 152.819 443.395 C 148.674 445.993, 142.187 446.705, 138.863 444.927 C 136.928 443.891, 136.915 443.941, 138.488 446.341 C 139.384 447.709, 141.757 449.606, 143.761 450.557 C 147.011 452.099, 148.115 452.146, 153.953 450.992 C 162.016 449.399, 163.961 448.176, 167.052 442.759 C 169.123 439.130, 169.473 437.242, 169.416 430 C 169.379 425.325, 168.991 418.551, 168.554 414.947 C 167.870 409.318, 168.047 407.829, 169.806 404.381 C 170.932 402.173, 172.631 399.721, 173.582 398.933 C 176.364 396.626, 178 391.500, 178 385.091 C 178 381.806, 178.380 378.883, 178.844 378.597 C 179.308 378.310, 181.333 378.342, 183.343 378.668 C 186.109 379.117, 187.519 380.104, 189.140 382.726 L 191.281 386.190 200.224 385.482 L 209.167 384.774 206.406 389.137 C 201.967 396.148, 195.420 410.828, 192.640 420.005 C 181.688 456.145, 186.468 491.961, 206.287 522.281 C 224.687 550.429, 263.724 574.502, 304.500 582.845 C 328.515 587.758, 361.139 588.242, 385.500 584.046 C 479.550 567.847, 556.961 499.815, 584.044 409.557 C 592.024 382.965, 594.507 365.630, 594.436 337 C 594.374 312.336, 592.854 299.429, 587.367 277 C 572.406 215.849, 534.344 161.452, 482.521 127.161 C 465.968 116.208, 439.146 103.472, 422.121 98.481 C 420.639 98.046, 422.721 100.409, 427.639 104.743 M 257.378 108.137 C 248.204 114.119, 236.073 125.935, 230.312 134.500 C 216.943 154.378, 212.514 175.178, 216.473 199.500 C 217.907 208.314, 222.807 224.704, 225.693 230.343 C 227.663 234.193, 226.992 234.452, 222.928 231.409 C 211.136 222.579, 201.402 221.056, 188 225.944 C 177.927 229.618, 170.713 234.323, 166.257 240.124 C 164.473 242.446, 163.145 244.478, 163.305 244.638 C 163.466 244.799, 166.474 243.768, 169.991 242.348 C 175.472 240.134, 177.483 239.829, 184.081 240.211 C 192.557 240.701, 200.700 243.923, 204.980 248.478 C 207.184 250.825, 207.215 251.006, 205.424 251.082 C 197.601 251.417, 190.722 254.371, 184.574 260.038 C 182.058 262.357, 180 264.600, 180 265.022 C 180 265.445, 182.813 264.897, 186.250 263.806 C 196.919 260.418, 214.248 262.732, 218.709 268.141 C 219.725 269.372, 219.209 269.797, 215.500 270.789 C 212.313 271.641, 209.358 273.656, 204.904 278.015 C 201.506 281.340, 198.954 284.287, 199.231 284.565 C 199.509 284.842, 201.708 284.615, 204.118 284.059 C 206.528 283.504, 212.100 283.048, 216.500 283.046 C 225.081 283.044, 230.374 284.759, 236.722 289.601 L 240 292.102 240.010 285.801 C 240.026 275.338, 244.983 266.994, 253.232 263.548 C 260.490 260.515, 261.355 261.590, 255.807 266.750 C 249.336 272.768, 246.861 278.193, 246.813 286.461 C 246.755 296.570, 249.238 302.149, 257.837 311.232 C 259.780 313.284, 261.047 315.286, 260.652 315.681 C 258.425 317.908, 239.518 310.814, 229.256 303.901 L 224.500 300.697 228 304.480 C 236.466 313.630, 251.827 321.192, 264.874 322.633 C 267.968 322.975, 272.075 324.205, 274 325.366 L 277.500 327.477 274.500 328.120 C 265.030 330.151, 254.604 328.490, 239.049 322.472 C 226.589 317.652, 217.452 316.822, 210.534 319.882 C 204.718 322.455, 204.918 323.316, 210.975 321.778 C 217.499 320.122, 226.714 322.044, 238.090 327.433 C 251.805 333.930, 262.802 336.339, 276 335.737 C 281.775 335.474, 287.290 334.926, 288.255 334.520 C 290.747 333.472, 294.336 341.786, 296.882 354.500 C 300.386 372.008, 304.454 380.649, 313.379 389.544 C 322.675 398.808, 334.285 403.471, 351.017 404.660 C 358.665 405.204, 366.227 404.385, 371.208 402.474 C 372.674 401.911, 372.796 402.224, 372.081 404.718 C 370.586 409.931, 368.254 413.489, 363.287 418.135 C 356.633 424.359, 350.321 426.391, 339.633 425.752 C 335.160 425.484, 330.600 424.925, 329.500 424.510 C 327.553 423.774, 327.554 423.794, 329.544 425.289 C 336.909 430.822, 353.264 431.491, 362.750 426.647 C 365.637 425.173, 368 424.356, 368 424.833 C 368 426.544, 362.247 433.593, 356.925 438.403 C 351.382 443.412, 344.294 447.233, 336.101 449.628 L 331.500 450.973 336.500 450.400 C 348.432 449.032, 362.867 441.660, 369.525 433.535 C 376.413 425.128, 380.970 411.528, 380.992 399.309 C 380.997 397.004, 381.456 394.836, 382.014 394.491 C 383.640 393.486, 386.770 386.740, 387.558 382.544 L 388.282 378.682 384.525 382.841 C 380.093 387.746, 378.656 387.998, 377.062 384.150 C 374.411 377.750, 361.151 367.845, 350.621 364.399 C 333.872 358.918, 324.833 350.123, 324.833 339.307 C 324.833 333.520, 322.985 334.954, 322.270 341.294 C 321.028 352.319, 326.807 358.870, 346.099 368.306 C 360.582 375.389, 367.462 381.024, 370.474 388.267 C 372.040 392.032, 372.040 392.034, 369.271 393.216 C 366.351 394.462, 350.605 394.938, 349.481 393.814 C 349.120 393.453, 349.838 391.786, 351.077 390.110 C 353.526 386.797, 355.144 376, 353.191 376 C 352.610 376, 351.840 376.930, 351.479 378.066 C 350.239 381.974, 344.978 386.913, 341.327 387.598 C 329.167 389.880, 317.038 376.560, 313.462 357 C 309.277 334.102, 302.945 324.114, 286.558 314.560 C 280.545 311.054, 279.991 310.480, 281.532 309.353 C 284.446 307.222, 293.872 305.754, 299.847 306.500 C 306.784 307.367, 317.540 311.190, 324.340 315.205 C 331.450 319.404, 342.741 323.808, 350.233 325.306 C 355.847 326.427, 356.688 326.920, 358.304 330.029 C 360.540 334.329, 359.989 340.095, 356.685 347 C 354.527 351.508, 354.495 351.806, 356.262 350.860 C 362.695 347.417, 370.984 336.004, 371.010 330.554 C 371.019 328.656, 371.702 328.479, 380.023 328.220 C 384.975 328.066, 390.184 327.500, 391.597 326.963 C 393.011 326.425, 394.636 326.275, 395.209 326.629 C 396.637 327.512, 395.638 339.362, 393.662 344.961 C 392.797 347.414, 392.336 349.664, 392.637 349.961 C 393.542 350.850, 399.840 342.867, 402.568 337.375 C 404.297 333.892, 405.126 330.554, 405.154 326.955 C 405.176 324.044, 405.680 320.884, 406.273 319.935 C 407.079 318.643, 406.918 317.074, 405.633 313.710 C 403.798 308.905, 401.738 307.702, 396.973 308.655 C 395.471 308.956, 393.977 308.772, 393.653 308.248 C 392.645 306.617, 395.478 303.820, 398.304 303.656 C 399.786 303.570, 400.999 303.195, 400.999 302.821 C 401.001 301.070, 397.536 299, 394.603 299 C 391.258 299, 389.053 300.788, 385.662 306.250 C 383.124 310.336, 378.810 310.047, 376.066 305.607 C 372.162 299.291, 362.747 294.094, 357.565 295.394 C 355.711 295.860, 354.395 295.067, 351.118 291.512 C 346.908 286.944, 345.877 283.177, 348.289 281.175 C 348.999 280.586, 351.574 279.657, 354.012 279.109 C 361.463 277.435, 362.647 273.606, 358.683 264 C 357.435 260.975, 354.133 255.125, 351.345 251 C 345.429 242.247, 334.310 228.583, 335.478 231.500 C 335.918 232.600, 337.529 237.100, 339.057 241.500 C 340.585 245.900, 342.763 251.525, 343.896 254 C 347.591 262.071, 345.993 272.082, 340.168 277.349 C 338.129 279.194, 338.125 279.186, 338.684 273.774 C 339.794 263.016, 334.706 251.768, 324.233 241.833 C 313.792 231.928, 303.769 226.244, 287.680 221.101 C 267.110 214.527, 261.255 209.779, 252.855 192.862 C 247.708 182.497, 245.644 172.850, 245.715 159.500 C 245.767 149.586, 246.234 145.972, 248.396 138.712 C 251.447 128.469, 256.463 118.055, 262.586 109.250 C 264.977 105.813, 266.556 103, 266.095 103 C 265.634 103, 261.711 105.312, 257.378 108.137 M 226.500 113.835 C 188.918 133.866, 157.535 162.243, 134.524 197 C 120.701 217.879, 112.851 234.080, 104.968 258 C 89.222 305.782, 88.318 358.085, 102.402 406.514 C 119.496 465.294, 158.840 517.090, 211.260 549.823 L 218.021 554.044 207.760 543.752 C 195.956 531.911, 188.693 521.847, 182.489 508.734 C 176.959 497.043, 173.951 486.082, 173.139 474.649 L 172.500 465.669 168.228 473.541 C 165.879 477.871, 162.982 484.087, 161.791 487.354 L 159.625 493.295 156.296 489.397 C 145.924 477.253, 131.017 450.179, 124.143 431 C 117.340 412.022, 111.144 385.260, 109.093 366 C 107.403 350.122, 110.090 323.340, 115.525 301.900 C 127.475 254.760, 155.709 214.440, 194.063 189.744 C 202.517 184.299, 202.620 184.184, 202.203 180.615 C 201.971 178.627, 201.597 177, 201.373 177 C 201.148 177, 197.938 178.838, 194.240 181.085 C 170.800 195.325, 148.021 218.132, 131.371 244.031 C 128.213 248.943, 125.487 252.821, 125.314 252.648 C 124.588 251.921, 133.828 235.595, 141.530 224 C 155.984 202.239, 170.133 187.819, 193.286 171.254 C 203.357 164.048, 203.426 163.970, 205.687 157.254 C 210.218 143.791, 220.079 127.660, 231.190 115.534 C 234.483 111.940, 236.800 109.009, 236.339 109.019 C 235.877 109.030, 231.450 111.197, 226.500 113.835 M 284.757 166.939 C 275.793 175.132, 272.405 186.217, 274.936 199.079 C 276.948 209.307, 277.006 209.367, 287.432 211.880 C 305.021 216.120, 321.332 226.243, 330.166 238.400 C 336.711 247.407, 331.085 232.868, 323.728 221.764 C 320.717 217.219, 317.333 211.677, 316.208 209.450 C 312.880 202.858, 311.707 193.290, 313.400 186.543 C 314.320 182.875, 312.431 183.334, 307.882 187.882 C 304.803 190.961, 304 192.513, 304 195.382 C 304 199.961, 302.329 200.031, 300.449 195.532 C 298.560 191.010, 298.608 184.224, 300.572 178.440 C 301.436 175.894, 301.978 173.645, 301.776 173.442 C 301.573 173.240, 299.990 173.936, 298.258 174.989 C 294.650 177.184, 292.318 180.405, 290.461 185.759 L 289.164 189.500 287.996 186.500 C 286.115 181.670, 286.541 172.825, 288.912 167.466 C 290.074 164.840, 290.850 162.517, 290.638 162.304 C 290.425 162.092, 287.779 164.177, 284.757 166.939 M 332.992 208.250 C 327.574 211.939, 327.159 213.407, 330.611 216.668 C 332.259 218.226, 335.559 222.099, 337.944 225.277 C 340.329 228.454, 342.403 230.929, 342.552 230.777 C 342.702 230.624, 342.167 227.927, 341.365 224.781 C 339.593 217.835, 340.778 212.037, 344.715 208.389 L 347.292 206 341.794 206 C 337.738 206, 335.429 206.590, 332.992 208.250 M 296.584 269.977 C 300.466 277.109, 304.763 280.233, 311.457 280.788 C 314.379 281.030, 317.539 280.798, 318.480 280.271 C 321.575 278.539, 305.510 267.638, 296.609 265.430 L 293.719 264.713 296.584 269.977 M 350.455 303.455 C 347.526 306.383, 347.369 308.119, 349.829 310.345 C 352.311 312.591, 353.067 312.448, 355.618 309.250 C 357.427 306.981, 358.599 306.500, 362.320 306.500 C 367.424 306.500, 367.182 305.263, 361.553 302.592 C 356.799 300.336, 353.301 300.608, 350.455 303.455 M 649.370 338 C 649.370 343.775, 649.535 346.137, 649.737 343.250 C 649.939 340.363, 649.939 335.637, 649.737 332.750 C 649.535 329.863, 649.370 332.225, 649.370 338 M 524.120 373.679 C 521.362 381.582, 508.918 405.835, 503.174 414.500 C 497.295 423.369, 487.762 434.205, 483.130 437.282 L 480.760 438.856 485.571 444.428 C 488.217 447.493, 490.756 450, 491.213 450 C 492.621 450, 504.572 431.018, 509.799 420.479 C 516.248 407.479, 521.253 393.856, 524.002 381.821 C 526.324 371.659, 526.389 367.177, 524.120 373.679 M 297.899 466.527 C 297.590 478.626, 300.594 486.207, 309.514 495.842 C 316.620 503.517, 321.911 507.252, 330.971 510.988 C 342.683 515.818, 351.964 517.480, 367 517.442 C 386.801 517.392, 403.250 513.463, 423.353 503.982 L 432.206 499.807 429.257 496.654 C 427.635 494.919, 425.044 491.792, 423.500 489.703 L 420.691 485.907 417.596 488.866 C 410.253 495.887, 393.271 503, 383.853 503 C 378.193 503, 378.200 499.865, 383.872 493.596 C 386.085 491.151, 386.184 490.818, 384.500 491.491 C 375.823 494.962, 365.406 497.276, 356.386 497.735 C 342.559 498.439, 341.453 496.239, 352.451 489.901 C 357.227 487.148, 357.311 487.032, 354 487.746 C 352.075 488.161, 344.200 488.481, 336.500 488.458 C 325.711 488.426, 321.640 488.036, 318.750 486.759 C 311.710 483.648, 314.694 481.600, 327.954 480.444 L 336.209 479.724 327.355 477.447 C 311.837 473.456, 302.724 469.299, 299.546 464.762 C 298.037 462.608, 297.998 462.651, 297.899 466.527" stroke="none" fill="#f9f9f9" fill-rule="evenodd"/></svg>